<svg width="18" height="20" viewBox="0 0 18 20" fill="none" xmlns="http://www.w3.org/2000/svg">
    <path fill-rule="evenodd" clip-rule="evenodd"
          d="M15.3 7.875C15.3 4.32323 13.2855 1.85808 10.6789 1.118C10.5845 0.880571 10.4353 0.65984 10.2326 0.474626C9.53977 -0.158209 8.46026 -0.158209 7.76748 0.474626C7.56517 0.65943 7.41621 0.879593 7.3218 1.11643C4.71183 1.85326 2.7 4.31304 2.7 7.875C2.7 10.1797 2.22208 11.4711 1.33736 12.4069C1.18944 12.5634 0.788669 12.9218 0.517192 13.1646L0.517156 13.1647L0.51694 13.1649C0.388622 13.2796 0.289235 13.3685 0.259168 13.398L0 13.6535V16.6373H5.47918C5.66445 17.5666 6.18308 18.1883 7.12098 18.7448C8.27473 19.4293 9.72527 19.4293 10.879 18.7448C11.7067 18.2537 12.2617 17.499 12.4869 16.6373H18V13.6535L17.7408 13.398C17.7135 13.3711 17.6181 13.2854 17.4933 13.1735C17.2227 12.9308 16.814 12.5643 16.6638 12.4048C15.7785 11.4646 15.3 10.1716 15.3 7.875ZM10.563 16.6373H7.36076C7.48791 16.8673 7.70464 17.0409 8.05861 17.251C8.63664 17.5939 9.36336 17.5939 9.94139 17.251C10.2091 17.0922 10.4182 16.882 10.563 16.6373ZM15.3362 13.5865C15.5255 13.7876 15.9315 14.1553 16.2 14.3954V14.8873H1.8V14.3958C2.06646 14.1585 2.47359 13.7911 2.66264 13.5911C3.8648 12.3195 4.5 10.6031 4.5 7.875C4.5 4.56741 6.59949 2.63583 9 2.63583C11.3937 2.63583 13.5 4.57738 13.5 7.875C13.5 10.5943 14.1354 12.3113 15.3362 13.5865Z"
          fill="white"/>
</svg>
