<svg viewBox="0 0 30 26" fill="none" xmlns="http://www.w3.org/2000/svg">
    <svg viewBox="0 0 7 7" xmlns="http://www.w3.org/2000/svg">
    <path d="M5.78225 6.67686L3.4007 4.29417L1.01916 6.67686C0.939806 6.75574 0.832471 6.8 0.720606 6.8C0.60874 6.8 0.501406 6.75574 0.42205 6.67686L0.124377 6.37899C0.084979 6.34005 0.0536823 6.29368 0.0323335 6.24255C0.0109848 6.19143 -8.72458e-06 6.13659 -8.72458e-06 6.08118C-8.72458e-06 6.02578 0.0109848 5.97089 0.0323335 5.91976C0.0536823 5.86864 0.084979 5.82226 0.124377 5.78332L2.50592 3.40069L0.124377 1.01806C0.084979 0.979116 0.0536823 0.932742 0.0323335 0.881617C0.0109848 0.830492 -8.72458e-06 0.775654 -8.72458e-06 0.720247C-8.72458e-06 0.66484 0.0109848 0.60995 0.0323335 0.558825C0.0536823 0.5077 0.084979 0.461326 0.124377 0.422385L0.42205 0.124576C0.461118 0.0851086 0.507652 0.0537675 0.558895 0.0323866C0.610137 0.0110056 0.665085 -2.24452e-05 0.720606 -2.24452e-05C0.776127 -2.24452e-05 0.831074 0.0110056 0.882317 0.0323866C0.93356 0.0537675 0.980093 0.0851086 1.01916 0.124576L3.4007 2.50721L5.78225 0.124576C5.82131 0.0851086 5.86785 0.0537675 5.91909 0.0323866C5.97033 0.0110056 6.02528 -2.24452e-05 6.0808 -2.24452e-05C6.13632 -2.24452e-05 6.19127 0.0110056 6.24251 0.0323866C6.29376 0.0537675 6.34029 0.0851086 6.37936 0.124576L6.67703 0.422385C6.75577 0.501488 6.80001 0.608609 6.80001 0.720247C6.80001 0.831884 6.75577 0.938954 6.67703 1.01806L4.29549 3.40069L6.67703 5.78332C6.75577 5.86243 6.80001 5.96955 6.80001 6.08118C6.80001 6.19282 6.75577 6.29989 6.67703 6.37899L6.37936 6.67686C6.3 6.75574 6.19267 6.8 6.0808 6.8C5.96894 6.8 5.8616 6.75574 5.78225 6.67686Z"/>
</svg>
