<svg width="19" height="18" viewBox="0 0 19 18" fill="none" xmlns="http://www.w3.org/2000/svg">
    <path fill-rule="evenodd" clip-rule="evenodd"
          d="M12.0437 10.4999H11.4268L11.2124 10.2944C11.9699 9.44166 12.4306 8.33616 12.4306 7.12491C12.4306 4.43242 10.1698 2.24991 7.3807 2.24991C4.59161 2.24991 2.33081 4.43242 2.33081 7.12491C2.33081 9.81741 4.59161 11.9999 7.3807 11.9999C8.6354 11.9999 9.77978 11.5559 10.6631 10.8254L10.8776 11.0309V11.6249L14.7605 15.3682L15.9189 14.2499L12.0437 10.4999ZM7.3807 10.4999C5.44931 10.4999 3.88462 8.98941 3.88462 7.12491C3.88462 5.26116 5.44931 3.74991 7.3807 3.74991C9.31131 3.74991 10.8768 5.26116 10.8768 7.12491C10.8768 8.98941 9.31131 10.4999 7.3807 10.4999Z"
          fill="#828282"/>
</svg>
