<svg width="13" height="13" viewBox="0 0 13 13" fill="none" xmlns="http://www.w3.org/2000/svg">
    <path d="M12.3652 5.88679L11.1243 5.88679C10.8646 5.1798 10.2009 4.67481 9.40733 4.67481C8.61377 4.67481 7.95006 5.1798 7.69035 5.88679L0.620442 5.88679C0.288589 5.88679 0.0144505 6.16093 0.0144505 6.50722C0.0144505 6.8535 0.28859 7.12764 0.634871 7.12764L7.70478 7.12764C7.96449 7.83463 8.6282 8.33963 9.42176 8.33963C10.2153 8.33963 10.8646 7.8202 11.1243 7.11321L12.3796 7.11321C12.7259 7.11321 13 6.83907 13 6.49279C13 6.14651 12.7114 5.88679 12.3652 5.88679Z"
          fill="white"/>
    <path d="M12.3652 10.5616L5.1798 10.5616C4.92009 9.8546 4.25638 9.34961 3.46282 9.34961C2.66925 9.34961 2.00555 9.8546 1.74584 10.5616L0.620419 10.5616C0.274137 10.5616 -2.43068e-06 10.8357 -2.44085e-06 11.1676C-2.45147e-06 11.5139 0.274137 11.788 0.620419 11.788L1.76026 11.788C2.00555 12.495 2.66925 13 3.46282 13C4.25638 13 4.92009 12.4806 5.19423 11.7736L12.3796 11.7736C12.7114 11.788 13 11.5139 13 11.1532C13 10.8357 12.7114 10.5616 12.3652 10.5616Z"
          fill="white"/>
    <path d="M0.620388 2.4384L3.9245 2.43841C4.18422 3.1454 4.84793 3.65039 5.64149 3.65039C6.43505 3.65039 7.08434 3.1454 7.35848 2.43841L12.3651 2.43841C12.7114 2.43841 13 2.16427 13 1.81798C13 1.4717 12.7114 1.19756 12.3651 1.19756L7.34405 1.19756C7.08434 0.504995 6.43505 3.35863e-07 5.64149 2.94444e-07C4.84793 2.53026e-07 4.18422 0.504995 3.9245 1.21199L0.634818 1.21199C0.288535 1.21199 0.0143942 1.48613 0.0143942 1.83241C0.0143942 2.16426 0.274105 2.4384 0.620388 2.4384Z"
          fill="white"/>
</svg>
