<svg version="1.1" fill="none" viewBox="0 0 690 180" width="200" height="50" xmlns="http://www.w3.org/2000/svg">
    <path transform="translate(370,53)"
          d="m0 0h11l6 3 2 2v9l-5 4h-18l-8 4-5 5-7 12-3 15-1 54-4 4-7 1-5-3-1-2v-102l3-4h10l3 4 1 3 1 11 7-9 7-6 8-4z"
          fill="#468284"/>
    <path transform="translate(449,53)"
          d="m0 0h15l6 4 1 1v9l-4 4h-20l-10 5-7 8-5 9-2 6-1 10-1 52-4 4-7 1-5-3-1-2v-100l4-6h9l4 5 1 13 8-10 11-7z"
          fill="#529697"/>
    <path transform="translate(651,53)"
          d="m0 0h16l12 4 9 7 6 9 3 9 1 5v73l-4 5-8 1-5-3-1-2-1-66-3-12-4-7-10-5-4-1h-10l-10 3-8 6-6 10-2 7-1 64-4 5-6 1-5-2-2-2v-103l3-4h10l3 4 2 12 7-8 11-7z"
          fill="#529697"/>

    <path transform="translate(2,15)"
          d="m0 0h9l8 4 4 6 1 3v10l-3 5 2 9 20 59 6 18 7-14 7-18 6-14 6-16 2-7-2-6v-8l4-8 8-5h10l6 3 5 6 1 3v9l-2 5 1 7 10 24 12 29 4 10 2-3 8-23 9-25 11-30-1-6-2-5v-10l3-6 5-4 5-2h9l7 4 4 7v11l-5 8-9 6-6 16-11 31-7 20-5 15v7l1 3v11l-3 6-6 5-10 2-9-3-5-6-1-3v-11l2-6-13-32-14-34v-2l-3 3-9 23-12 31-4 10 2 15-3 7-5 5-8 3-8-1-7-4-3-4-1-3v-10l1-9-12-36-16-46-1-4-5-2-7-6-2-4v-12l4-7z"
          fill="#80A4A1"/>

    <path transform="translate(216,60)"
          d="m0 0 3 1 5 2 10 1 1 3h15l4 2-18 1-10 4-8 6-7 11-2 7-1 16 2 11 6 12 7 7 4 3h-2l2 9 6 4 6-1 5 3h16l-1 3-6 2h-20l-13-4-11-7-7-7-8-14-3-8-1-6v-22l4-13 7-13 10-10z"
          fill="#2F7377"/>

    <path transform="translate(2,15)"
          d="m0 0h9l8 4 4 6 1 3v10l-3 5 2 9 20 59 6 18 7-14 7-18 6-14 6-16 3-9 5 5 7 6-1 6-15 39-9 23 2 15-3 7-5 5-8 3-8-1-7-4-3-4-1-3v-10l1-9-12-36-16-46-1-4-5-2-7-6-2-4v-12l4-7z"
          fill="#2F7477"/>

    <path transform="translate(234,53)"
          d="m0 0h20l12 5 8 6 6 7v-8l2-5 3-3h11l3 7v97l-4 6-7 1-5-3-2-2-2-11-9 9-14 7-3 1h-20l-13-4-11-7-7-7-8-14-3-8-1-6v-22l4-13 7-13 10-10 14-8z M 2 16 h14l10 3 9 6 6 7 5 11 1 7v15l-4 13-6 9-9 7-6 3-5 1h-13l-11-4-6-4-8-9-5-12-1-15 2-13 5-10 7-8 11-6z"
          fill="#458183"
          fill-rule="evenodd"/>

    <path transform="translate(523,53)"
          d="m0 0h17l13 4 11 7 8 8 6 10 3 7 2 12v7l-2 4-4 2h-83l3 12 5 9 8 8 12 6 5 1h17l11-4 8-6 3-3h10l3 4-1 7-8 8-10 6-16 5h-19l-12-3-14-7-8-7-9-13-4-13-1-6v-16l3-14 5-10 8-10 8-7 12-6z M 0 16 h16l12 5 7 7 6 12 1 6h-70l2-9 7-11 8-6z"
          fill="#539697"
          fill-rule="evenodd"/>
</svg>
