<?xml version="1.0" encoding="UTF-8"?>
<svg version="1.1" viewBox="0 0 400 600" width="40" height="50" xmlns="http://www.w3.org/2000/svg">
    <path transform="translate(67,34)"
          d="m0 0 9 1 8 4 5 6 3 8v9l-2 5 1 4 68 68 7 8 11 11 4 3 5 16v5l-3-4h-2l-2 6-3-3-36 108-13 38v2l21-7 29-9 20-6h5v3l2 2 4 2-10 4-47 15-20 6h-4l4 7 12 16 13 18 4 1h7l9 4 3 2v2h2l4 10-1 10-3 7 13 18 13 19 1 3 11-2h10l12 2 2-5 12-17 13-19 2 1v2l5 2 2 2-4 4-8 12-12 17-2 3 1 5v7l-4 6-6 7-11 9v7l5 10 1 3 5 2 14 6 48 17 12 5-6-21-11-40-10-37-5-21 10-2 10 39 11 40 10 36 1 1 11-19 13-21 16-26 1-5-15-11-16-11-36-25v-3l4-6 11 7 23 16 12 8 16 11-11-30-9-25-11-31-6-16-5 5-10 14-9 12-5 7-6-4-4-2 5-5 16-21 10-14 1-2-48-15-6-2-2-2-5-2 1-3 7-2 19 6 8 1 22 7 5 2-13-37-24-72-14-41 1-7-3-9 1-4 9-11 53-53 4-5 8-7 7-8 6-5-1-6-1-11 4-11 9-7 8-2 9 1 8 5 5 6 2 4 1 9-2 8-6 8-4 3h-2l9 54 10 59v10l-17 34-10 19-13 26-10 19-14 27-6 10 1 8 15 42 28 78-2 6-17 28-12 19-15 25-6 9-5 4-30 12-19 8-40 16-7 3h-7l-35-14-49-20-13-5-5-4-12-20-16-26-14-23-9-14-1-4 30-83 11-31 4-11-2-6-12-22-30-58-17-33-10-19v-8l11-65 8-48 1-2-5-2-5-5-3-4-1-3v-13l4-8 7-6z"
          fill="#86B7B6"/>
    <path transform="translate(270,159)"
          d="m0 0 2 1-1 4 3 9v6 4l15 44 14 43 17 49 3 9v2l-30-9-8-1-16-5-7 2-1 2 8 2 2 2 51 16v3l-14 19-16 21 6 4h2l8-10 14-19 6-8 3 3 11 31 12 34 12 33v2l-4-2-12-8-22-15-23-16-4 5v3l22 15 23 16 20 14 2 2-1 5-14 23-16 26-11 18-2-2-10-36-16-59-5-19-8 2 11 43 18 65 2 10-10-3-47-17-15-6-7-4-6-10-1-3v-7l10-9 5-4 6-9v-7l-1-5 14-20 11-16-5-4-1-2-11 15-16 23-1 2-12-1h-10l-11 1-11-16-14-20-3-5 3-6 1-10-3-10h-2v-2l-5-2-7-3h-10l-8-10-13-18-9-12v-3l43-13 37-12-5-3-2-3-10 2-60 19-4 1 1-6 14-41 12-36 16-47 6-19 2-1 2 3 2-5 3-1 3 3 22 64 15 44 4-10 12-35 8-24 12-35 8-23z"
          fill="#7EA4A2"/>
    <path transform="translate(67,34)"
          d="m0 0 9 1 8 4 5 6 3 8v9l-2 5 1 4 68 68 7 8 11 11 4 3 5 16v5l-3-4h-2l-2 6-3-3-36 108-13 38v2l21-7 29-9 20-6h5v3l2 2 4 2-10 4-47 15-20 6h-4l4 7 12 16 13 18 4 1h7l9 4 3 2v2h2l4 10-1 10-4 7-9 6-6 1-4 17-7 26-12 44-8 29v2l24-9 26-9 21-8 6-4 5-7 3-10h2v2h6l-2 13h-2l-1 5-7 8-16 7-48 17-10 3v2l5 1 27 11 31 13 16 6 1 2h-5l1 5 1 2-7-1-47-19-32-13-9-4-5-5-32-52-14-23-5-9 9-26 26-72 10-28-2-6-12-22-30-58-17-33-10-19v-8l11-65 8-48 1-2-5-2-5-5-3-4-1-3v-13l4-8 7-6z"
          fill="#468284"/>
    <path transform="translate(365,76)"
          d="m0 0 9 3 5 1 11 66 8 47-1 7-10 20-10 19-12 23-24 47-9 16-2-2-12-37-14-41-23-69-3-8 1-4 42-42 7-8 7-6 7-8 18-18z"
          fill="#FAFBF4"/>
    <path transform="translate(81,76)"
          d="m0 0 4 2 12 13 55 55 7 8 11 10-1 8-12 36-17 50-15 44-7 21-2 1-17-34-10-19-17-33-12-23-9-17 2-17 17-101z"
          fill="#FAFBF4"/>
    <path transform="translate(160,381)"
          d="m0 0h7l9 4 3 2v2h2l4 10-1 10-4 7-9 6-6 1-4 17-7 26-12 44-8 29v2l24-9 26-9 21-8 6-4 5-7 3-10h2v2h6l-2 13h-2l-1 5-7 8-16 7-48 17-10 3v2l5 1 27 11 31 13 16 6 1 2h-5l1 5 1 2-7-1-47-19-32-13-9-4-5-5-32-52-14-23-5-9 9-26 13-36 5-14 3-2 2 7 2 1 1 5-17 48v2l23-16 21-14 13-9h2l-1-4v-10l4-8 8-6z"
          fill="#458183"/>


    <path transform="translate(224,314)"
          d="m0 0 4 4 9 16 11 18 21 35-2 5-2 4v12l3 6-1 4-11 16-14 20-1 2-12-1h-10l-11 1-11-16-14-20-3-5 3-6 1-10-4-10 1-5 13-21 12-20 13-22z"
          fill="#FAFBF4"/>

    <path transform="translate(272,180)" d="m0 0 2 3 15 44 14 43 17 49 3 9v2l-10-3-35-11-38-12-9-3 12-38 8-22 20-60z"
          fill="#FAFBF4"/>
    <path transform="translate(176,180)" d="m0 0 2 3 22 66 15 43 2 6v4l-40 12-38 12-13 4 1-6 14-41 12-36 16-47 6-19z"
          fill="#FAFBF4"/>
    <path transform="translate(224,510)"
          d="m0 0 4 4 6 7 11 5 53 19 11 4v2l-25 10-27 11-28 11-6 1-24-9-40-17-18-7v-2l19-7 39-14 16-7 6-7z"
          fill="#FAFBF4"/>
    <path transform="translate(275,422)"
          d="m0 0 9 1 3 9 9 35 18 65 2 10-10-3-47-17-15-6-7-4-6-10-1-3v-7l10-9 5-4 6-9v-7l-1-5 14-20z" fill="#FAFBF4"/>
    <path transform="translate(169,422)"
          d="m0 0 5 1 10 14 15 22-2 9 4 8 6 7 11 9 1 5-3 9-7 8-14 6-37 13-19 7-6 2 2-10 13-48 11-40 6-21z"
          fill="#FAFBF4"/>


    <path transform="translate(298,418)"
          d="m0 0 5 2 11 8 22 15 20 14 11 8 1 4-13 22-10 16-13 21-6 10-2-2-10-36-16-59-4-16 1-5z" fill="#FAFBF4"/>
    <path transform="translate(67,34)"
          d="m0 0 9 1 8 4 5 6 3 8v9l-2 5 1 4 68 68 7 8 11 11 4 3 5 16v5l-3-4h-2l-2 6-3-3-26 78-4 2v-2h-2l-2-10 20-59 7-21v-5l-12-11-15-16-54-54-5-6-9 3h-8l-9-3-5-4-4-6-1-3v-13l4-8 7-6z"
          fill="#529697"/>
    <path transform="translate(149,418)" d="m0 0 5 2 1 4-11 40-18 66-2 7-4-4-16-27-13-21-10-16 1-4 12-9 20-14 31-21z"
          fill="#FAFBF4"/>
    <path transform="translate(160,381)"
          d="m0 0h7l9 4 3 2v2h2l4 10-1 10-4 7-9 6h-13l-9-3-14 10-15 10-16 11-17 12-5 4 1 5 7 11v7l-1 5-4 1-15-24-3-7 17-47 10-28 3-2 2 7 2 1 1 5-17 48v2l23-16 21-14 13-9h2l-1-4v-10l4-8 8-6z"
          fill="#317579"/>
    <path transform="translate(268,415)"
          d="m0 0 2 1v2l5 2 2 2-4 4-8 12-12 17-2 3 1 5v7l-4 6-6 7-11 9v7l5 10 1 3 5 2 14 6 42 15 1 2-11-3-39-14-9-4-1 6 11 2 8 5 22 8-4 1-34-12-9-5-7-8-2-2-1-2h2l1-12-5-1v-2l-4-2-14-12-6-9-1-5 2-7-13-19-12-17-2-2 8-5 3 1 14 20 11 16 1 3 11-2h10l12 2 2-5 12-17z"
          fill="#80A4A1"/>
    <path transform="translate(328,349)"
          d="m0 0 3 3 11 31 12 34 12 33v2l-4-2-12-8-22-15-23-16-1-2v-13l-4-7 1-4 10-13 13-18z" fill="#FAFBF4"/>
    <path transform="translate(236,313)" d="m0 0 9 2 54 17 23 7v3l-14 19-16 21h-15l-9-14-14-24-16-27z" fill="#FAFBF4"/>
    <path transform="translate(119,349)" d="m0 0 3 1 26 36v3l-4 8v14l-15 10-31 21-13 9-1-3 12-34 17-48z"
          fill="#FAFBF4"/>

    <path transform="translate(210,313)" d="m0 0h2l-2 5-15 26-11 18-12 20h-15l-8-10-13-18-9-12v-3l43-13z"
          fill="#FAFBF4"/>


    <path transform="translate(67,34)" d="m0 0 9 1 8 4 5 6 3 8v9l-4 9-3 3h-2v2l-9 4h-8l-9-3-5-4-4-6-1-3v-13l4-8 7-6z"
          fill="#86B8B7"/>


</svg>
